<?xml version="1.0" encoding="UTF-8"?>
<svg version="1.1" xmlns="http://www.w3.org/2000/svg" width="514" height="464">
<path d="M0 0 C2.34393897 -0.00463602 4.6878772 -0.00966172 7.03181458 -0.01504517 C13.37143102 -0.028099 19.7110369 -0.0346008 26.05066466 -0.03905582 C30.02410187 -0.04199901 33.99753628 -0.04610618 37.97097206 -0.05056 C49.01436681 -0.06274229 60.05775969 -0.07304248 71.101161 -0.07643509 C71.80582574 -0.07665466 72.51049047 -0.07687422 73.23650869 -0.07710044 C73.94267886 -0.07731872 74.64884903 -0.077537 75.37641829 -0.07776189 C76.80693511 -0.07820532 78.23745193 -0.07865189 79.66796875 -0.07910156 C80.37752593 -0.07932299 81.08708312 -0.07954442 81.81814203 -0.07977256 C93.28433137 -0.08371041 104.75045677 -0.10113808 116.21662148 -0.12446108 C128.04387087 -0.14832036 139.87108838 -0.16064357 151.69836217 -0.16180301 C158.31656384 -0.16271183 164.93469341 -0.16859077 171.55287743 -0.18662262 C177.79189513 -0.20329181 184.03075649 -0.20516894 190.26978874 -0.19648361 C192.53742649 -0.1957231 194.80507332 -0.19992251 197.07268906 -0.20994186 C228.34061316 -0.3397987 263.85939644 1.13137419 287.90942383 23.78613281 C311.51133851 48.62237901 312.0524571 84.91031228 311.98071289 117.13769531 C311.98343269 119.23329794 311.98699909 121.3288996 311.99133301 123.42449951 C312.0003419 129.04435383 311.99696097 134.66413357 311.99057484 140.28398895 C311.9854545 146.20999835 311.99022284 152.13600203 311.99334717 158.06201172 C311.99696943 168.00717293 311.99223367 177.95230428 311.98266602 187.89746094 C311.97178487 199.33891252 311.97531168 210.78029277 311.98631883 222.22174263 C311.99544157 232.10610622 311.99665275 241.99044854 311.99144149 251.87481499 C311.98834904 257.75161785 311.98783636 263.62838737 311.99451447 269.50518799 C312.00036046 275.03432751 311.99616077 280.56337651 311.98472595 286.09250641 C311.98211765 288.1022044 311.98277732 290.11191022 311.98725128 292.12160492 C312.05436197 325.37463865 310.01000674 361.2082187 285.84692383 386.59863281 C250.86974306 419.57557295 191.78046796 413.33056556 147.35331774 413.29545832 C143.01283751 413.29286243 138.67235901 413.29529218 134.33187866 413.29684448 C127.04213067 413.29864761 119.75239291 413.29631134 112.46264648 413.29150391 C104.15299229 413.28608553 95.84336275 413.28781389 87.53370917 413.29333031 C80.28756209 413.29794002 73.04142222 413.29847388 65.79527414 413.29589164 C61.51709301 413.2943685 57.23892325 413.2940205 52.96074295 413.29742813 C34.81399937 413.30987254 16.68131701 413.16210845 -1.46020508 412.70361328 C-2.6912277 412.67329431 -2.6912277 412.67329431 -3.94711947 412.64236283 C-37.97171704 411.78531822 -71.53264576 408.10744441 -96.27807617 382.16113281 C-108.01071056 368.13012788 -113.2823745 350.93293341 -116.02807617 333.16113281 C-116.14368896 332.41605469 -116.25930176 331.67097656 -116.37841797 330.90332031 C-118.45044177 316.0514565 -118.42798723 301.00395992 -118.42333984 286.04077148 C-118.42634054 284.08371925 -118.42974512 282.1266676 -118.43351746 280.1696167 C-118.44227195 274.90237921 -118.44469201 269.63515802 -118.44533324 264.36791396 C-118.44604896 261.06045794 -118.4481931 257.75300593 -118.45083046 254.44555092 C-118.46005766 242.85896166 -118.4641689 231.27238383 -118.46337891 219.68579102 C-118.46277976 208.96426956 -118.47330628 198.24279868 -118.48912257 187.52129 C-118.50229655 178.25349261 -118.50755867 168.98571153 -118.5069235 159.71790487 C-118.50667126 154.21083085 -118.50936736 148.7038018 -118.52010155 143.19673729 C-118.69074733 49.08894472 -118.69074733 49.08894472 -92.27807617 22.16113281 C-91.73666992 21.59523438 -91.19526367 21.02933594 -90.63745117 20.44628906 C-68.03139244 -1.07513554 -28.76083606 0.01331563 0 0 Z " fill="#FDFCFC" transform="translate(158.278076171875,26.8388671875)"/>
<path d="M0 0 C2.34393897 -0.00463602 4.6878772 -0.00966172 7.03181458 -0.01504517 C13.37143102 -0.028099 19.7110369 -0.0346008 26.05066466 -0.03905582 C30.02410187 -0.04199901 33.99753628 -0.04610618 37.97097206 -0.05056 C49.01436681 -0.06274229 60.05775969 -0.07304248 71.101161 -0.07643509 C71.80582574 -0.07665466 72.51049047 -0.07687422 73.23650869 -0.07710044 C73.94267886 -0.07731872 74.64884903 -0.077537 75.37641829 -0.07776189 C76.80693511 -0.07820532 78.23745193 -0.07865189 79.66796875 -0.07910156 C80.37752593 -0.07932299 81.08708312 -0.07954442 81.81814203 -0.07977256 C93.28433137 -0.08371041 104.75045677 -0.10113808 116.21662148 -0.12446108 C128.04387087 -0.14832036 139.87108838 -0.16064357 151.69836217 -0.16180301 C158.31656384 -0.16271183 164.93469341 -0.16859077 171.55287743 -0.18662262 C177.79189513 -0.20329181 184.03075649 -0.20516894 190.26978874 -0.19648361 C192.53742649 -0.1957231 194.80507332 -0.19992251 197.07268906 -0.20994186 C228.34061316 -0.3397987 263.85939644 1.13137419 287.90942383 23.78613281 C311.51133851 48.62237901 312.0524571 84.91031228 311.98071289 117.13769531 C311.98343269 119.23329794 311.98699909 121.3288996 311.99133301 123.42449951 C312.0003419 129.04435383 311.99696097 134.66413357 311.99057484 140.28398895 C311.9854545 146.20999835 311.99022284 152.13600203 311.99334717 158.06201172 C311.99696943 168.00717293 311.99223367 177.95230428 311.98266602 187.89746094 C311.97178487 199.33891252 311.97531168 210.78029277 311.98631883 222.22174263 C311.99544157 232.10610622 311.99665275 241.99044854 311.99144149 251.87481499 C311.98834904 257.75161785 311.98783636 263.62838737 311.99451447 269.50518799 C312.00036046 275.03432751 311.99616077 280.56337651 311.98472595 286.09250641 C311.98211765 288.1022044 311.98277732 290.11191022 311.98725128 292.12160492 C312.05436197 325.37463865 310.01000674 361.2082187 285.84692383 386.59863281 C250.86974306 419.57557295 191.78046796 413.33056556 147.35331774 413.29545832 C143.01283751 413.29286243 138.67235901 413.29529218 134.33187866 413.29684448 C127.04213067 413.29864761 119.75239291 413.29631134 112.46264648 413.29150391 C104.15299229 413.28608553 95.84336275 413.28781389 87.53370917 413.29333031 C80.28756209 413.29794002 73.04142222 413.29847388 65.79527414 413.29589164 C61.51709301 413.2943685 57.23892325 413.2940205 52.96074295 413.29742813 C34.81399937 413.30987254 16.68131701 413.16210845 -1.46020508 412.70361328 C-2.6912277 412.67329431 -2.6912277 412.67329431 -3.94711947 412.64236283 C-37.97171704 411.78531822 -71.53264576 408.10744441 -96.27807617 382.16113281 C-108.01071056 368.13012788 -113.2823745 350.93293341 -116.02807617 333.16113281 C-116.14368896 332.41605469 -116.25930176 331.67097656 -116.37841797 330.90332031 C-118.45044177 316.0514565 -118.42798723 301.00395992 -118.42333984 286.04077148 C-118.42634054 284.08371925 -118.42974512 282.1266676 -118.43351746 280.1696167 C-118.44227195 274.90237921 -118.44469201 269.63515802 -118.44533324 264.36791396 C-118.44604896 261.06045794 -118.4481931 257.75300593 -118.45083046 254.44555092 C-118.46005766 242.85896166 -118.4641689 231.27238383 -118.46337891 219.68579102 C-118.46277976 208.96426956 -118.47330628 198.24279868 -118.48912257 187.52129 C-118.50229655 178.25349261 -118.50755867 168.98571153 -118.5069235 159.71790487 C-118.50667126 154.21083085 -118.50936736 148.7038018 -118.52010155 143.19673729 C-118.69074733 49.08894472 -118.69074733 49.08894472 -92.27807617 22.16113281 C-91.73666992 21.59523438 -91.19526367 21.02933594 -90.63745117 20.44628906 C-68.03139244 -1.07513554 -28.76083606 0.01331563 0 0 Z M-55.27807617 43.16113281 C-57.14646551 46.29289488 -57.52898996 48.57343058 -57.53255177 52.20686722 C-57.53838396 53.23053272 -57.54421615 54.25419823 -57.55022508 55.30888391 C-57.54644576 56.43182343 -57.54266643 57.55476296 -57.53877258 58.71173096 C-57.54259813 59.90598497 -57.54642368 61.10023899 -57.55036515 62.33068252 C-57.55890924 65.64693715 -57.55845739 68.9629705 -57.55418456 72.27921891 C-57.55172152 75.85535242 -57.56072635 79.43145967 -57.56822205 83.00758362 C-57.58098391 90.01487235 -57.5827608 97.02212279 -57.58042178 104.02942118 C-57.57863973 109.72577233 -57.58038584 115.42211185 -57.58464622 121.11846161 C-57.58524141 121.92879071 -57.5858366 122.73911981 -57.58644983 123.57400434 C-57.58766157 125.22015335 -57.5888757 126.86630237 -57.5900922 128.51245138 C-57.60097396 143.95785204 -57.59880254 159.40323089 -57.59270736 174.84863278 C-57.58754047 188.97559508 -57.59878648 203.10248837 -57.61780558 217.22943702 C-57.6371839 231.734448 -57.64543981 246.23942633 -57.64168233 260.74445033 C-57.63976991 268.88803931 -57.64226158 277.03156959 -57.65639687 285.17514801 C-57.66831173 292.10977098 -57.66971457 299.04429914 -57.6576067 305.97892341 C-57.65171806 309.51611936 -57.65061793 313.05314191 -57.6626091 316.59032631 C-57.67546692 320.42783679 -57.66500261 324.26508462 -57.65229797 328.1026001 C-57.65967226 329.21661674 -57.66704654 330.33063338 -57.67464429 331.4784081 C-57.62204347 339.02631579 -56.94153182 345.0070406 -51.90307617 350.97363281 C-49.44174575 353.0247415 -47.09435724 354.64467377 -44.27807617 356.16113281 C-43.66300125 356.51289695 -43.04792632 356.8646611 -42.41421276 357.22708476 C-39.98709361 358.28836798 -38.30347144 358.41375388 -35.66239071 358.41840172 C-34.73462698 358.42485061 -33.80686325 358.4312995 -32.85098547 358.43794382 C-31.8351479 358.43484661 -30.81931034 358.43174941 -29.77268982 358.42855835 C-28.14986771 358.43535502 -28.14986771 358.43535502 -26.49426132 358.44228899 C-22.85632003 358.45498451 -19.21852745 358.45330927 -15.58056641 358.45166016 C-12.9771658 358.45764234 -10.37376697 358.46444716 -7.77037048 358.47201538 C-1.42382421 358.48863358 4.92268491 358.49412538 11.26925112 358.49524014 C16.43068041 358.49619062 21.59209745 358.50030096 26.75352287 358.50664139 C41.39395676 358.5242593 56.03436132 358.53347989 70.67480589 358.53198044 C71.46419514 358.53190053 72.25358439 358.53182062 73.06689453 358.53173828 C73.85725064 358.53165652 74.64760675 358.53157476 75.46191304 358.53149052 C88.25800058 358.5306784 101.05397019 358.54979591 113.85002363 358.57801501 C126.99564604 358.60677555 140.141211 358.62055343 153.28686565 358.61882746 C160.66430732 358.61816445 168.0416255 358.62361713 175.41903877 358.64518356 C182.36215259 358.66535032 189.3050021 358.66468916 196.24812889 358.6501503 C198.79296881 358.64806102 201.33782502 358.65277009 203.88263702 358.66487122 C207.36461309 358.68035261 210.84569458 358.67099508 214.32765198 358.65560913 C215.82798575 358.67103982 215.82798575 358.67103982 217.35862929 358.68678224 C225.02198405 358.61227583 232.91135018 357.37018297 238.9391337 352.29392374 C245.74459226 345.34531309 247.17685555 336.92887467 247.10287476 327.51487732 C247.10755473 326.58586564 247.1122347 325.65685395 247.11705649 324.6996904 C247.12895363 321.60913419 247.11956993 318.51902574 247.11010742 315.4284668 C247.11417543 313.20369204 247.1195186 310.97891931 247.1260376 308.75415039 C247.13968878 302.7274283 247.13442175 296.70086064 247.12490034 290.67413592 C247.11729335 284.36112734 247.12435216 278.04813179 247.12905884 271.73512268 C247.13486206 260.4571786 247.1255531 249.17929805 247.11028083 237.90136892 C247.09687543 227.68592023 247.09920986 217.47057381 247.11303711 207.25512695 C247.12910862 195.37616866 247.13505892 183.49725985 247.12620032 171.61828858 C247.12152699 165.33595421 247.12088978 159.05369022 247.13080978 152.7713604 C247.13948416 146.86566285 247.13344869 140.96015824 247.11612701 135.05448151 C247.11216491 132.88894788 247.11329147 130.72339798 247.11991501 128.55787086 C247.12813121 125.59849726 247.11780772 122.63973921 247.10287476 119.68040466 C247.10956692 118.82660121 247.11625909 117.97279776 247.12315404 117.09312147 C247.06835804 111.48194825 245.95669002 107.31594192 243.72192383 102.16113281 C242.89222076 102.15526657 242.0625177 102.14940033 241.20767212 102.14335632 C233.35218105 102.08522447 225.49696814 102.01303196 217.64174843 101.9254179 C213.60420388 101.88087063 209.5667566 101.84158109 205.52905273 101.81469727 C201.62552168 101.78850682 197.72236816 101.74799615 193.81907272 101.69794655 C192.33694565 101.68138341 190.85475344 101.66980391 189.37254715 101.66351891 C169.01078977 101.5685211 169.01078977 101.5685211 161.09692383 94.97363281 C160.4446582 94.44382813 159.79239258 93.91402344 159.12036133 93.36816406 C158.65887695 92.96984375 158.19739258 92.57152344 157.72192383 92.16113281 C156.80323682 94.88963322 155.88696412 97.61890925 154.97192383 100.34863281 C154.59293945 101.47301758 154.59293945 101.47301758 154.20629883 102.62011719 C152.35047132 108.16440187 150.61424256 113.73943461 148.90454102 119.33032227 C147.50727363 123.87659052 146.06762776 128.40932867 144.62817383 132.94238281 C144.35245544 133.81071243 144.07673706 134.67904205 143.79266357 135.57368469 C142.64849216 139.17514846 141.50329935 142.77628713 140.3581543 146.37744141 C137.3820375 155.73892761 134.40862647 165.09998599 131.53930664 174.49487305 C130.45966623 178.01660331 129.35072685 181.52879136 128.23754883 185.04003906 C127.56444744 187.44512228 127.56444744 187.44512228 127.72192383 191.16113281 C116.83192383 190.83113281 105.94192383 190.50113281 94.72192383 190.16113281 C93.73192383 186.53113281 92.74192383 182.90113281 91.72192383 179.16113281 C88.99304265 169.29582765 85.93602604 159.58970803 82.6340332 149.90307617 C80.20116482 142.72270277 78.04975408 135.50003714 76.01953125 128.19702148 C72.33784059 115.0606193 68.03541424 102.10160405 63.72192383 89.16113281 C73.29192383 89.16113281 82.86192383 89.16113281 92.72192383 89.16113281 C93.05192383 92.13113281 93.38192383 95.10113281 93.72192383 98.16113281 C94.16078917 100.09170717 94.65116487 102.01187133 95.21020508 103.91113281 C95.50233887 104.92296631 95.79447266 105.9347998 96.09545898 106.97729492 C96.40531738 108.02796143 96.71517578 109.07862793 97.03442383 110.16113281 C99.32205823 118.10517831 101.48277267 126.03327016 103.29663086 134.09814453 C104.66978004 140.1314095 106.32418357 146.0740901 108.06030273 152.01245117 C109.04160192 155.42660362 109.77687967 158.58011944 110.24145508 162.12207031 C110.40000977 163.12496094 110.55856445 164.12785156 110.72192383 165.16113281 C111.38192383 165.49113281 112.04192383 165.82113281 112.72192383 166.16113281 C112.86887695 165.27296875 113.01583008 164.38480469 113.16723633 163.46972656 C115.15677081 152.13852731 117.97691165 141.10041278 120.9621582 129.99462891 C122.10797155 125.72139315 123.22625286 121.44101606 124.34692383 117.16113281 C125.51682036 112.6980033 126.69592791 108.23834098 127.92114258 103.79003906 C128.10918457 103.10232422 128.29722656 102.41460937 128.4909668 101.70605469 C128.99759888 99.85796283 129.50992969 98.01143582 130.02270508 96.16503906 C130.87306322 93.02585969 130.87306322 93.02585969 130.72192383 89.16113281 C138.97192383 89.16113281 147.22192383 89.16113281 155.72192383 89.16113281 C154.73192383 84.70613281 154.73192383 84.70613281 153.72192383 80.16113281 C153.44345093 77.29454041 153.44345093 77.29454041 153.40307617 74.82495117 C153.37327164 73.41450783 153.37327164 73.41450783 153.34286499 71.97557068 C153.32553818 70.50314659 153.32553818 70.50314659 153.30786133 69.00097656 C153.2788121 67.45525719 153.2788121 67.45525719 153.24917603 65.87831116 C153.18986257 62.6185 153.14318917 59.3586526 153.09692383 56.09863281 C153.0586996 53.87531095 153.01964535 51.65200319 152.97973633 49.42871094 C152.8842013 44.00631101 152.79901575 38.58382465 152.72192383 33.16113281 C127.43528414 33.06767264 102.14867035 32.99714527 76.8618927 32.95388412 C65.12067896 32.93326292 53.37957257 32.9051506 41.63842773 32.859375 C31.40430377 32.81949391 21.17025756 32.79369679 10.93605804 32.78477883 C5.5175972 32.77956628 0.09935877 32.7673238 -5.31903076 32.73821259 C-10.42108095 32.71102355 -15.52281749 32.70269495 -20.62493324 32.70870209 C-22.49538185 32.70760342 -24.36584117 32.69967041 -26.23622704 32.68431091 C-28.79556208 32.66432817 -31.35372214 32.66922341 -33.91308594 32.68011475 C-34.64851812 32.66846338 -35.38395031 32.65681201 -36.14166832 32.64480758 C-44.6369403 32.74213053 -50.44293483 36.33505092 -55.27807617 43.16113281 Z " fill="#DF527A" transform="translate(158.278076171875,26.8388671875)"/>
<path d="M0 0 C0.92014893 0.00829834 1.84029785 0.01659668 2.78833008 0.02514648 C14.06735034 0.3056496 23.06130325 3.85130486 31.5625 11.4375 C32.83984375 13.65625 32.83984375 13.65625 33.5625 15.4375 C31.65582956 17.59299693 29.73818045 19.73659904 27.8125 21.875 C27.27367187 22.48666016 26.73484375 23.09832031 26.1796875 23.72851562 C25.65117187 24.31181641 25.12265625 24.89511719 24.578125 25.49609375 C24.09633789 26.03548584 23.61455078 26.57487793 23.11816406 27.13061523 C21.27450841 28.67943644 19.9375799 29.12475208 17.5625 29.4375 C15.6953125 28.44140625 15.6953125 28.44140625 13.6875 27 C7.55687051 23.39850809 1.48002575 23.33389474 -5.4375 24.4375 C-11.96534158 26.92875661 -15.47005645 31.16860131 -18.5625 37.2890625 C-22.61793894 47.24661346 -21.34287119 60.6318061 -17.4375 70.4375 C-14.73713224 75.83823552 -11.07015664 79.28867807 -5.4375 81.4375 C5.53002365 83.13274895 11.7872868 79.32060068 20.5625 73.4375 C22.33649627 75.18438937 24.10672553 76.93483451 25.875 78.6875 C26.37451172 79.17863281 26.87402344 79.66976562 27.38867188 80.17578125 C30.01921339 82.78890196 32.43935162 85.39407911 34.5625 88.4375 C31.00047047 96.39559525 23.69425404 100.49926994 15.83618164 103.63989258 C4.70058565 107.52243925 -9.60602395 107.09959163 -20.4375 102.4375 C-33.34466028 96.04206022 -41.21906669 87.57916121 -46.76171875 74.25390625 C-51.62671581 59.76133606 -51.29424049 42.66092915 -45.21875 28.62109375 C-39.45818515 17.11596562 -30.44395709 7.24732326 -18.22973633 2.59692383 C-12.09423066 0.56580589 -6.44148935 -0.07537724 0 0 Z " fill="#EB3F6E" transform="translate(186.4375,114.5625)"/>
<path d="M0 0 C2.42731399 1.21590868 3.87348678 2.18598678 5.8125 4.125 C5.84815744 6.72205049 5.7668702 9.17051667 5.5625 11.75 C5.5116626 12.47840088 5.4608252 13.20680176 5.40844727 13.95727539 C5.12486115 17.58937478 4.74575667 21.04511494 3.75 24.5625 C2.62249638 28.84701376 2.62924297 32.72683131 2.8125 37.125 C5.93526683 37.125 8.06613134 36.76449428 10.4765625 34.69921875 C18.69756083 24.91906556 17.30042307 10.25313773 17.8125 -1.875 C19.41629341 -1.92916188 21.02061406 -1.96786638 22.625 -2 C23.51832031 -2.02320313 24.41164063 -2.04640625 25.33203125 -2.0703125 C27.8125 -1.875 27.8125 -1.875 30.8125 0.125 C31.10546875 2.875 31.10546875 2.875 31 6.125 C30.95939453 7.73375 30.95939453 7.73375 30.91796875 9.375 C30.88316406 10.2825 30.84835937 11.19 30.8125 12.125 C30.8125 12.785 30.8125 13.445 30.8125 14.125 C31.23660156 13.47273438 31.66070312 12.82046875 32.09765625 12.1484375 C39.49571859 1.12451163 39.49571859 1.12451163 44.8125 -1.875 C50.48679654 -2.72614448 50.48679654 -2.72614448 53.50390625 -0.7890625 C55.52664853 2.16957546 55.09700857 4.7878553 55 8.3125 C54.95939453 10.22095703 54.95939453 10.22095703 54.91796875 12.16796875 C54.88316406 13.14378906 54.84835937 14.11960937 54.8125 15.125 C55.225 14.48433594 55.6375 13.84367187 56.0625 13.18359375 C63.79107653 1.60798024 63.79107653 1.60798024 69.8125 -1.875 C73.6875 -2 73.6875 -2 76.8125 -0.875 C81.45327112 6.08615669 78.79107822 16.21604159 77.3125 24.0625 C77.16981689 24.77164551 77.02713379 25.48079102 76.88012695 26.21142578 C76.07543511 30.25255478 75.65774669 34.00469304 75.8125 38.125 C80.15665669 37.64231592 82.02477649 36.47026822 84.8125 33.125 C85.5859375 31.76375 85.5859375 31.76375 86.375 30.375 C86.849375 29.6325 87.32375 28.89 87.8125 28.125 C88.8025 28.125 89.7925 28.125 90.8125 28.125 C91.26283299 33.29238028 90.22497213 35.70403416 87.125 39.8125 C86.44050781 40.74449219 85.75601563 41.67648437 85.05078125 42.63671875 C82.12198688 45.89263849 79.63907336 47.81259685 75.27734375 48.55859375 C68.4404515 48.56916082 68.4404515 48.56916082 65.25 46.3125 C59.52692877 37.60347856 63.17869192 24.72812336 65.15625 15.16796875 C65.3728125 14.16378906 65.589375 13.15960938 65.8125 12.125 C55.45291642 22.06317679 52.16264713 33.17347963 50.8125 47.125 C49.8125 48.125 49.8125 48.125 46.5 48.4375 C42.8125 48.125 42.8125 48.125 40.609375 46.59375 C38.16451707 43.2347278 38.25302714 40.3084565 38.375 36.3125 C38.3853125 35.5707251 38.395625 34.8289502 38.40625 34.06469727 C38.62325821 26.55158587 40.03023488 19.4131913 41.8125 12.125 C34.80482901 17.30355009 29.74148226 25.56148783 27.8125 34.125 C27.47478984 37.57446808 27.25231403 41.00142374 27.12109375 44.46484375 C27.01925781 45.34269531 26.91742188 46.22054687 26.8125 47.125 C23.63428465 48.71410767 20.27310271 48.52920974 16.8125 48.125 C14.13818511 46.31336733 13.85329641 45.24738923 12.8125 42.125 C11.4203125 43.3315625 11.4203125 43.3315625 10 44.5625 C5.96379722 48.06054241 2.18103326 48.53644199 -3.03125 48.46875 C-5.1875 48.125 -5.1875 48.125 -7.625 46 C-9.20788715 43.08748765 -10.29733383 40.31476211 -11.1875 37.125 C-11.63480469 37.66769531 -12.08210938 38.21039063 -12.54296875 38.76953125 C-20.10099668 47.71346622 -20.10099668 47.71346622 -25.765625 48.46875 C-30.51289672 48.7226148 -33.27361047 48.75912743 -37.25 46 C-41.28158881 40.01764241 -42.11157162 34.19657968 -41.1875 27.125 C-38.29863544 16.17418783 -32.87941753 7.03209435 -23.5 0.5 C-16.03799559 -3.54096239 -7.71983149 -3.27658443 0 0 Z " fill="#E13A82" transform="translate(295.1875,246.875)"/>
<path d="M0 0 C1.734375 1.12890625 1.734375 1.12890625 3 3 C3.24843479 5.63222575 3.32939838 8.00214663 3.25 10.625 C3.23356445 11.70696655 3.23356445 11.70696655 3.21679688 12.81079102 C3.12525409 17.23220823 2.82346158 21.5775972 2.22265625 25.9609375 C1.82105149 29.63879159 1.94134314 33.30461776 2 37 C8.50036598 31.28572479 11.02561752 26.54169285 11.8359375 17.9296875 C12.12746285 10.94696131 12.15224393 3.98630483 12 -3 C13.76949095 -3.10815225 15.54087487 -3.18566083 17.3125 -3.25 C18.29863281 -3.29640625 19.28476563 -3.3428125 20.30078125 -3.390625 C23 -3 23 -3 24.84375 -1.375 C26.32383583 1.66517629 26.29727318 3.88362244 26.1875 7.25 C26.14689453 8.86648438 26.14689453 8.86648438 26.10546875 10.515625 C26.07066406 11.33546875 26.03585938 12.1553125 26 13 C26.36351562 12.34773438 26.72703125 11.69546875 27.1015625 11.0234375 C33.0440328 0.69268145 33.0440328 0.69268145 38 -3 C41.0872157 -3.57460868 43.92060782 -3.64051357 47 -3 C49 -1 49 -1 49.25 2.3125 C49.01863452 5.72514084 48.4765288 7.95465935 47 11 C46.43152344 10.85820312 45.86304688 10.71640625 45.27734375 10.5703125 C40.53633664 9.66451744 40.53633664 9.66451744 36.01953125 10.98828125 C27.63715283 17.85331965 23.89778074 27.27908563 22.66796875 37.85546875 C22.52203352 39.56958936 22.39930038 41.28597759 22.30859375 43.00390625 C22 45 22 45 20 47 C12.69565217 47.46376812 12.69565217 47.46376812 9 45 C8.3125 42.875 8.3125 42.875 8 41 C7.27683594 41.54140625 7.27683594 41.54140625 6.5390625 42.09375 C5.90742188 42.5578125 5.27578125 43.021875 4.625 43.5 C3.99851563 43.9640625 3.37203125 44.428125 2.7265625 44.90625 C1 46 1 46 -1 46 C-1.00257813 46.58523438 -1.00515625 47.17046875 -1.0078125 47.7734375 C-1.53158891 59.40127372 -5.13822983 74.82819734 -14 83 C-14.56074219 83.51949219 -15.12148437 84.03898437 -15.69921875 84.57421875 C-20.76126688 88.44769373 -25.75929212 88.68522129 -32 88.41796875 C-35.97567194 87.86406654 -38.15730465 86.84269535 -41 84 C-43.92600345 79.61099483 -44.78320713 76.22138086 -44 71 C-38.75145953 58.42408539 -26.98416192 51.378586 -15 46 C-14.01 46 -13.02 46 -12 46 C-12.33 43.03 -12.66 40.06 -13 37 C-13.639375 37.9075 -14.27875 38.815 -14.9375 39.75 C-18.69846045 44.23340483 -23.46479048 46.24198835 -29.11328125 47.453125 C-33.21960699 47.80395671 -35.74218987 46.83464431 -38.875 44.375 C-42.90248675 40.44842978 -43.79189094 36.97703611 -44.375 31.4375 C-44.04801649 20.79009945 -39.66704939 11.71928026 -32.3046875 4.2890625 C-23.13389355 -4.141488 -11.1962975 -5.66812561 0 0 Z " fill="#E94370" transform="translate(212,248)"/>
<path d="M0 0 C4.57831431 1.69639002 7.90820128 4.14452342 11.625 7.25 C17.33964392 11.92342244 23.16116745 16.39932004 29.125 20.75 C37.03185806 26.52550743 44.84438297 32.41408192 52.61962891 38.36547852 C58.24617267 42.67139889 63.90404985 46.92542928 69.625 51.10546875 C72.28663818 53.22865052 74.60945127 55.57892412 77 58 C68.88947758 58.06963245 60.77908089 58.12287815 52.66833305 58.15543652 C48.90182786 58.17106606 45.13552779 58.19225424 41.36914062 58.22631836 C37.73164998 58.25900935 34.09435615 58.2768734 30.45672989 58.28463173 C29.07169626 58.29015785 27.68667291 58.30094905 26.30172348 58.31719017 C24.35604179 58.33909128 22.41016039 58.34022648 20.46435547 58.34057617 C19.35849091 58.34723801 18.25262634 58.35389984 17.11325073 58.36076355 C10.9719066 57.64910448 6.95388868 54.59505981 3 50 C-0.46598769 44.60823232 -0.3959005 39.98123545 -0.29296875 33.7890625 C-0.28872391 32.82092621 -0.28447906 31.85278992 -0.28010559 30.85531616 C-0.26337956 27.77825527 -0.22573831 24.70186128 -0.1875 21.625 C-0.17244532 19.53256158 -0.15875829 17.44011283 -0.14648438 15.34765625 C-0.11349588 10.23151582 -0.06175528 5.11587079 0 0 Z " fill="#FDFCFD" transform="translate(318,64)"/>
<path d="M0 0 C6.74276223 3.05836095 10.8418554 7.58996081 14.12890625 14.1640625 C14.94337798 24.33828316 14.29457163 31.09771271 7.81640625 38.9765625 C1.33551792 44.25170416 -4.24683804 44.77532483 -12.4921875 44.57421875 C-19.65705845 43.70449453 -24.31749688 39.50766235 -28.6796875 33.96875 C-32.24198374 28.57274717 -32.21251336 23.07725928 -31.46484375 16.875 C-29.87681871 9.62441197 -25.55819132 5.44544837 -19.640625 1.29296875 C-13.93767965 -2.34533413 -6.34370257 -1.84701 0 0 Z " fill="#FDFBFD" transform="translate(410.87109375,54.8359375)"/>
<path d="M0 0 C1.69140625 1.0859375 1.69140625 1.0859375 3 3 C3.29296875 6.35546875 3.29296875 6.35546875 3.1875 10.1875 C3.16042969 11.45980469 3.13335937 12.73210937 3.10546875 14.04296875 C3.07066406 15.01878906 3.03585937 15.99460937 3 17 C3.4125 16.35933594 3.825 15.71867187 4.25 15.05859375 C11.97857653 3.48298024 11.97857653 3.48298024 18 0 C21.875 -0.125 21.875 -0.125 25 1 C29.64077112 7.96115669 26.97857822 18.09104159 25.5 25.9375 C25.35731689 26.64664551 25.21463379 27.35579102 25.06762695 28.08642578 C24.26293511 32.12755478 23.84524669 35.87969304 24 40 C28.34415669 39.51731592 30.21227649 38.34526822 33 35 C33.7734375 33.63875 33.7734375 33.63875 34.5625 32.25 C35.036875 31.5075 35.51125 30.765 36 30 C36.99 30 37.98 30 39 30 C39.45033299 35.16738028 38.41247213 37.57903416 35.3125 41.6875 C34.62800781 42.61949219 33.94351563 43.55148437 33.23828125 44.51171875 C30.30948688 47.76763849 27.82657336 49.68759685 23.46484375 50.43359375 C16.6279515 50.44416082 16.6279515 50.44416082 13.4375 48.1875 C7.71442877 39.47847856 11.36619192 26.60312336 13.34375 17.04296875 C13.5603125 16.03878906 13.776875 15.03460938 14 14 C3.64041642 23.93817679 0.35014713 35.04847963 -1 49 C-2 50 -2 50 -5.3125 50.3125 C-9 50 -9 50 -11.203125 48.46875 C-13.64798293 45.1097278 -13.55947286 42.1834565 -13.4375 38.1875 C-13.42203125 37.07483765 -13.42203125 37.07483765 -13.40625 35.93969727 C-13.18924179 28.42658587 -11.78226512 21.2881913 -10 14 C-13.53275325 16.74183834 -16.31055706 19.41407608 -19 23 C-20.34714698 20.30570604 -20.98952116 18.94979351 -21 16 C-17.07329736 7.74352259 -9.95634821 -1.72321411 0 0 Z " fill="#DF388D" transform="translate(347,245)"/>
<path d="M0 0 C1.27743576 -0.00426498 2.55487152 -0.00852997 3.87101746 -0.01292419 C5.29988101 -0.01257463 6.72874454 -0.01211307 8.15760803 -0.0115509 C9.65202926 -0.01454077 11.14644972 -0.01794289 12.64086914 -0.02172852 C16.71106645 -0.03059029 20.78124275 -0.03290754 24.85144877 -0.0335443 C28.24378577 -0.03449159 31.63611783 -0.0381678 35.02845293 -0.0417164 C43.02886393 -0.04986922 51.02926367 -0.05229988 59.02967834 -0.05158997 C67.29519642 -0.05098894 75.56064927 -0.06154379 83.82615083 -0.07733363 C90.91149706 -0.09038895 97.99682192 -0.09577471 105.08218008 -0.09513456 C109.31881694 -0.09487898 113.55539587 -0.09776299 117.7920208 -0.10831261 C121.77530197 -0.11795993 125.75846946 -0.11809608 129.74175453 -0.11079597 C131.20673157 -0.10974592 132.67171555 -0.11213778 134.1366806 -0.11815643 C136.13057567 -0.12581983 138.12450911 -0.12005798 140.1184082 -0.11352539 C141.795045 -0.11434254 141.795045 -0.11434254 143.50555325 -0.1151762 C146.12269592 0.13371277 146.12269592 0.13371277 148.12269592 2.13371277 C147.87269592 5.19621277 147.87269592 5.19621277 147.12269592 8.13371277 C144.4010062 9.49455763 142.25596014 9.26591478 139.20779419 9.27415466 C137.31698875 9.28271988 137.31698875 9.28271988 135.38798523 9.29145813 C133.98323069 9.29270354 132.57847604 9.29382862 131.17372131 9.29484558 C129.70047887 9.29947272 128.22723764 9.30449724 126.7539978 9.30989075 C122.74577863 9.32302525 118.73757622 9.32946154 114.72933888 9.33390141 C112.22704228 9.33682994 109.72475027 9.34093429 107.22245598 9.34540558 C99.398693 9.35908217 91.57494051 9.3687485 83.7511664 9.37260747 C74.70951963 9.37709127 65.6680238 9.39465337 56.62642294 9.42360806 C49.64380012 9.4451957 42.66121986 9.45531016 35.67856401 9.45664859 C31.50503171 9.45769856 27.33164127 9.46364701 23.158144 9.4814682 C19.23390317 9.497899 15.30991161 9.50012891 11.38564873 9.49132919 C9.94366159 9.49055617 8.50166133 9.49493628 7.05970764 9.50478745 C5.09470582 9.51742704 3.12960468 9.5098677 1.1645813 9.50120544 C0.06379273 9.502672 -1.03699583 9.50413857 -2.17114162 9.50564957 C-4.87730408 9.13371277 -4.87730408 9.13371277 -6.77054691 7.77480698 C-7.87730408 6.13371277 -7.87730408 6.13371277 -7.62730408 3.50871277 C-6.24313336 -0.87449451 -4.33833705 0.00650662 0 0 Z " fill="#E3455D" transform="translate(144.87730407714844,337.8662872314453)"/>
<path d="M0 0 C1.21853668 -0.00426498 2.43707336 -0.00852997 3.6925354 -0.01292419 C5.05528262 -0.01257463 6.41802982 -0.01211307 7.78077698 -0.0115509 C9.20623361 -0.01454081 10.63168943 -0.01794295 12.05714417 -0.02172852 C15.93933114 -0.03058987 19.82149609 -0.03290752 23.7036922 -0.0335443 C26.93945363 -0.03449164 30.17520987 -0.0381679 33.41096932 -0.0417164 C41.04221645 -0.04986907 48.67345177 -0.05229989 56.30470276 -0.05158997 C64.18850113 -0.05098895 72.07223113 -0.0615436 79.95601219 -0.07733363 C86.71439737 -0.09038954 93.47276014 -0.09577469 100.23115784 -0.09513456 C104.27217608 -0.09487899 108.3131336 -0.09776211 112.35413933 -0.10831261 C116.15356849 -0.11796092 119.95287846 -0.1180954 123.75231171 -0.11079597 C125.14956142 -0.10974604 126.54681842 -0.11213707 127.94405556 -0.11815643 C129.84598967 -0.12582153 131.747964 -0.12005719 133.64990234 -0.11352539 C134.7160398 -0.11407016 135.78217726 -0.11461493 136.88062191 -0.1151762 C139.38844299 0.13371277 139.38844299 0.13371277 141.38844299 2.13371277 C141.63844299 4.63371277 141.63844299 4.63371277 141.38844299 7.13371277 C139.38844299 9.13371277 139.38844299 9.13371277 136.88062191 9.38260174 C135.81448445 9.38205697 134.748347 9.3815122 133.64990234 9.38095093 C131.81786758 9.38724266 131.81786758 9.38724266 129.94882202 9.3936615 C128.58811872 9.38817765 127.2274162 9.38249466 125.86671448 9.37663269 C124.43948784 9.37770515 123.01226163 9.37964329 121.58503723 9.38238525 C117.70293812 9.38724214 113.82095354 9.37956779 109.93886828 9.36943221 C105.8834106 9.36066685 101.82795668 9.36240885 97.77249146 9.36279297 C90.96224544 9.36185573 84.15204392 9.35316319 77.34181213 9.33952332 C69.45742213 9.32379086 61.57308086 9.31852539 53.6886763 9.31925887 C46.11638868 9.31986828 38.54411701 9.3147712 30.97183418 9.30646706 C27.74337197 9.30292785 24.5149154 9.3011029 21.28645134 9.30057335 C17.48867369 9.29957204 13.69093728 9.2934929 9.89317322 9.28340721 C8.49550695 9.28047559 7.09783593 9.27925817 5.7001667 9.27983475 C3.80010669 9.28032214 1.90004843 9.27407587 0 9.26742554 C-1.06576043 9.26574969 -2.13152086 9.26407385 -3.22957706 9.26234722 C-5.61155701 9.13371277 -5.61155701 9.13371277 -6.61155701 8.13371277 C-6.73655701 4.63371277 -6.73655701 4.63371277 -6.61155701 1.13371277 C-4.85562338 -0.62222086 -2.38370159 0.00374823 0 0 Z " fill="#DB3779" transform="translate(220.61155700683594,308.8662872314453)"/>
<path d="M0 0 C0.90774673 -0.00556915 1.81549347 -0.01113831 2.75074768 -0.01687622 C3.74490189 -0.00766144 4.73905609 0.00155334 5.76333618 0.01104736 C6.81268845 0.00900299 7.86204071 0.00695862 8.94319153 0.00485229 C12.42980116 0.00183338 15.9159424 0.02037627 19.40249634 0.03936768 C21.83654666 0.04242755 24.27059874 0.04430193 26.70465088 0.04504395 C31.82437786 0.04965629 36.94394838 0.06410223 42.06362915 0.08624268 C48.56891866 0.11425622 55.07408365 0.12542697 61.57942772 0.12992477 C67.83296609 0.13513687 74.08647446 0.14965321 80.33999634 0.16436768 C82.09288027 0.16718876 82.09288027 0.16718876 83.88117599 0.17006683 C98.47174203 0.2003465 112.9992106 0.52794655 127.56655884 1.36749268 C127.56655884 3.34749268 127.56655884 5.32749268 127.56655884 7.36749268 C125.00031927 8.65061246 123.18901153 8.49047413 120.31481934 8.48774719 C118.64469284 8.48980919 118.64469284 8.48980919 116.94082642 8.49191284 C115.71371948 8.48831757 114.48661255 8.48472229 113.22232056 8.48101807 C111.29067551 8.48123711 111.29067551 8.48123711 109.32000732 8.48146057 C105.78303461 8.48174817 102.24609562 8.4758575 98.70913076 8.46888661 C95.01489017 8.46264683 91.32064886 8.46204878 87.62640381 8.46086121 C80.6282678 8.45774974 73.63014736 8.44953883 66.63201821 8.43951172 C58.66598286 8.42834487 50.69994678 8.42283868 42.73390555 8.41781628 C26.34478086 8.40735607 9.95567183 8.38976018 -6.43344116 8.36749268 C-7.12094116 6.05499268 -7.12094116 6.05499268 -7.43344116 3.36749268 C-5.4283603 0.27534765 -3.54730839 -0.00659767 0 0 Z " fill="#DD326D" transform="translate(144.43344116210938,228.63250732421875)"/>
<path d="M0 0 C-0.33 0.99 -0.66 1.98 -1 3 C-10.19639705 6.64684711 -20.28196798 9.18250546 -30 11 C-30 11.66 -30 12.32 -30 13 C-31.3921875 13.495 -31.3921875 13.495 -32.8125 14 C-38.45859504 16.42302055 -43.17145846 20.26154888 -48 24 C-48.71542969 24.53496094 -49.43085937 25.06992187 -50.16796875 25.62109375 C-55.94726421 30.24683723 -59.94569889 36.07487061 -63.89306641 42.26611328 C-64.95439105 43.92855873 -66.04496402 45.57222192 -67.13671875 47.21484375 C-73.34639654 57.16215618 -76.19152678 67.69816017 -79 79 C-79.66 79 -80.32 79 -81 79 C-81.73381657 58.20853059 -78.90974839 38.5674001 -64.5625 22.4765625 C-61.59563657 19.60919754 -58.54186439 16.94121186 -55.3125 14.375 C-54.51066284 13.73498047 -54.51066284 13.73498047 -53.69262695 13.08203125 C-50.18579303 10.45393868 -47.3550894 9.37870343 -43 9 C-43 8.34 -43 7.68 -43 7 C-41.80503906 6.70996094 -41.80503906 6.70996094 -40.5859375 6.4140625 C-34.2319808 4.88430165 -34.2319808 4.88430165 -28 2.9375 C-18.79941736 0.06231792 -9.57106795 -0.27786971 0 0 Z " fill="#F557B7" transform="translate(132,37)"/>
<path d="M0 0 C1 1 1 1 1.0546875 3.15234375 C0.40007661 13.29881256 -3.29039153 21.00854306 -10.15234375 28.50390625 C-13.06959454 30.86607761 -15.30233418 31 -19 31 C-22.02716234 26.45925649 -21.76930567 22.31705956 -21 17 C-17.23031802 6.84466455 -11.50119953 -1.38807581 0 0 Z " fill="#FDF9FA" transform="translate(203,254)"/>
<path d="M0 0 C1 1 1 1 1.2890625 4.5546875 C1.22218302 9.39374123 -0.38957934 12.90615155 -2.625 17.125 C-2.95628906 17.80175781 -3.28757812 18.47851562 -3.62890625 19.17578125 C-6.09671454 23.99033554 -8.92406415 27.42943625 -13 31 C-15.75 31.5 -15.75 31.5 -18 31 C-20.45553446 28.54446554 -20.40630497 27.65605934 -20.5625 24.25 C-20.41137777 16.06781068 -16.60826912 8.05152632 -11.1875 1.96484375 C-7.3907221 -1.07766354 -4.55795659 -1.51931886 0 0 Z " fill="#FDF8FA" transform="translate(288,254)"/>
<path d="M0 0 C0.33 0 0.66 0 1 0 C1 62.7 1 125.4 1 190 C0.67 190 0.34 190 0 190 C-0.33 174.82 -0.66 159.64 -1 144 C-1.33 144 -1.66 144 -2 144 C-2.02312154 131.63081285 -2.04091412 119.26163081 -2.05181217 106.89242649 C-2.05704141 101.14954938 -2.0641398 95.40668699 -2.07543945 89.66381836 C-2.08626687 84.12660005 -2.09227652 78.58939596 -2.09487724 73.05216789 C-2.09673176 70.93455723 -2.10035286 68.81694738 -2.10573006 66.69934273 C-2.11293856 63.74428726 -2.11399102 60.78929129 -2.11352539 57.83422852 C-2.11712067 56.94950363 -2.12071594 56.06477875 -2.12442017 55.15324402 C-2.11405216 49.11405216 -2.11405216 49.11405216 -1 48 C-0.92794489 46.31391034 -0.91613932 44.62499341 -0.9375 42.9375 C-0.94652344 42.01839844 -0.95554687 41.09929687 -0.96484375 40.15234375 C-0.97644531 39.44207031 -0.98804687 38.73179687 -1 38 C-1.33 38 -1.66 38 -2 38 C-2.042721 36.33388095 -2.04063832 34.66617115 -2 33 C-1.505 32.505 -1.505 32.505 -1 32 C-0.84028023 29.62661361 -0.7407567 27.27881728 -0.68359375 24.90234375 C-0.66281265 24.19348526 -0.64203156 23.48462677 -0.62062073 22.75428772 C-0.55505402 20.48212695 -0.4962077 18.20984736 -0.4375 15.9375 C-0.39432151 14.40037817 -0.35070745 12.8632685 -0.30664062 11.32617188 C-0.19936551 7.5509041 -0.09811863 3.7755164 0 0 Z " fill="#F5702D" transform="translate(99,174)"/>
<path d="M0 0 C0.33 0 0.66 0 1 0 C1.02335627 12.77153412 1.04103212 25.54306302 1.05181217 38.3146143 C1.05699074 44.24742967 1.06399492 50.18023025 1.07543945 56.11303711 C1.08644968 61.85783975 1.09231448 67.60262832 1.09487724 73.34744072 C1.09669931 75.51943622 1.10025557 77.69143112 1.10573006 79.86342049 C1.19969152 118.75354122 1.19969152 118.75354122 -1.4375 135.875 C-1.55931641 136.74511719 -1.68113281 137.61523438 -1.80664062 138.51171875 C-2.61199745 144.07827838 -3.72205082 149.52307496 -5 155 C-5.99 154.34 -6.98 153.68 -8 153 C-7.12021172 145.45895757 -7.12021172 145.45895757 -6.50927734 143.12646484 C-5.58527494 139.26833399 -5.39239354 135.32130528 -5.0625 131.375 C-4.97750244 130.36896729 -4.89250488 129.36293457 -4.80493164 128.32641602 C-3.7785092 115.34862847 -3.25230768 102.34039272 -2.69750977 89.33544922 C-2.658284 88.44220444 -2.61905823 87.54895966 -2.5786438 86.62864685 C-2.50507738 84.94702586 -2.43438329 83.26527566 -2.36715698 81.58338928 C-2.33357086 80.81973557 -2.29998474 80.05608185 -2.26538086 79.26928711 C-2.2381041 78.61109482 -2.21082733 77.95290253 -2.182724 77.27476501 C-2.03209628 75.39957258 -1.77787857 73.53300553 -1.49624634 71.67297363 C-1.00853649 68.06318296 -0.84213227 64.60357534 -0.79467773 60.96313477 C-0.77982834 59.96673729 -0.77982834 59.96673729 -0.76467896 58.95021057 C-0.73339256 56.78064389 -0.70843836 54.61105541 -0.68359375 52.44140625 C-0.66299574 50.92682871 -0.64199857 49.41225655 -0.62062073 47.89768982 C-0.56569384 43.9308816 -0.51615627 39.96402406 -0.46777344 35.99713135 C-0.41734246 31.94140282 -0.36176966 27.88574503 -0.30664062 23.83007812 C-0.19941901 15.88677874 -0.09789569 7.94341978 0 0 Z M-9 153 C-9 156 -9 156 -9 156 Z " fill="#D72C80" transform="translate(461,224)"/>
<path d="M0 0 C2.64971542 1.80662415 4.55620529 3.11241058 6 6 C6.039992 7.99960012 6.04346799 10.00047242 6 12 C3.21176345 13.0326802 2.1322726 13.04509293 -0.75 12.0625 C-1.4925 11.711875 -2.235 11.36125 -3 11 C-2.938125 12.0725 -2.87625 13.145 -2.8125 14.25 C-3 18 -3 18 -4.0625 20.4375 C-6 22 -6 22 -9.5625 22.4375 C-10.696875 22.293125 -11.83125 22.14875 -13 22 C-15.50477549 18.24283677 -15.14052718 16.58941562 -14.5390625 12.28125 C-12.98717381 5.713837 -7.29859071 -1.45971814 0 0 Z " fill="#E63F6F" transform="translate(167,242)"/>
<path d="M0 0 C1.953125 0.40625 1.953125 0.40625 3.953125 2.40625 C4.29670586 6.95869646 3.94787984 10.29206814 1.953125 14.40625 C1.38464844 14.26445312 0.81617188 14.12265625 0.23046875 13.9765625 C-4.58851175 13.0288836 -4.58851175 13.0288836 -9.09765625 14.5703125 C-10.86259551 16.10471365 -12.46492101 17.68495291 -14.046875 19.40625 C-15.04457351 20.4085462 -16.04387652 21.4092575 -17.046875 22.40625 C-17.046875 21.41625 -17.046875 20.42625 -17.046875 19.40625 C-18.696875 19.40625 -20.346875 19.40625 -22.046875 19.40625 C-21.716875 18.08625 -21.386875 16.76625 -21.046875 15.40625 C-20.386875 15.73625 -19.726875 16.06625 -19.046875 16.40625 C-18.68335938 15.75398438 -18.31984375 15.10171875 -17.9453125 14.4296875 C-9.423794 -0.38464465 -9.423794 -0.38464465 0 0 Z " fill="#E03F80" transform="translate(257.046875,244.59375)"/>
<path d="M0 0 C1.03688965 0.01047363 2.0737793 0.02094727 3.14208984 0.03173828 C4.26357422 0.03818359 5.38505859 0.04462891 6.54052734 0.05126953 C7.71615234 0.06802734 8.89177734 0.08478516 10.10302734 0.10205078 C11.87806641 0.11558594 11.87806641 0.11558594 13.68896484 0.12939453 C16.61885257 0.15302266 19.54834075 0.18596564 22.47802734 0.22705078 C23.66552734 1.91455078 23.66552734 1.91455078 24.47802734 4.22705078 C23.44506836 6.94213867 23.44506836 6.94213867 21.47802734 9.22705078 C18.96606445 9.82641602 18.96606445 9.82641602 16.00537109 9.78564453 C14.40918945 9.77500977 14.40918945 9.77500977 12.78076172 9.76416016 C11.67023438 9.73128906 10.55970703 9.69841797 9.41552734 9.66455078 C8.30113281 9.65875 7.18673828 9.65294922 6.03857422 9.64697266 C-2.22736828 9.52165515 -2.22736828 9.52165515 -4.52197266 7.22705078 C-4.77197266 4.72705078 -4.77197266 4.72705078 -4.52197266 2.22705078 C-2.52197266 0.22705078 -2.52197266 0.22705078 0 0 Z " fill="#E54957" transform="translate(141.52197265625,306.77294921875)"/>
<path d="M0 0 C-0.50300206 7.92228244 -1.82522365 15.4700822 -7.9375 21.0625 C-11.07070395 23.04473107 -12.394219 23.70112408 -16 23 C-18 21 -18 21 -18.5 18.375 C-17.6126039 12.38507632 -14.06364842 8.66922021 -9.4453125 4.93359375 C-2.56818182 0 -2.56818182 0 0 0 Z " fill="#FDF7F9" transform="translate(197,303)"/>
<path d="M0 0 C0.33 0 0.66 0 1 0 C1 29.04 1 58.08 1 88 C0.67 88 0.34 88 0 88 C0 84.7 0 81.4 0 78 C-0.66 78 -1.32 78 -2 78 C-2.02465746 73.8882744 -2.04283959 69.77657722 -2.05493164 65.66479492 C-2.0599708 64.26504772 -2.06680216 62.8653058 -2.07543945 61.46557617 C-2.0875232 59.45754223 -2.09269807 57.44947043 -2.09765625 55.44140625 C-2.10289307 54.23170166 -2.10812988 53.02199707 -2.11352539 51.77563477 C-2 49 -2 49 -1 48 C-0.92794489 46.31391034 -0.91613932 44.62499341 -0.9375 42.9375 C-0.94652344 42.01839844 -0.95554687 41.09929687 -0.96484375 40.15234375 C-0.97644531 39.44207031 -0.98804687 38.73179687 -1 38 C-1.33 38 -1.66 38 -2 38 C-2.042721 36.33388095 -2.04063832 34.66617115 -2 33 C-1.505 32.505 -1.505 32.505 -1 32 C-0.84028023 29.62661361 -0.7407567 27.27881728 -0.68359375 24.90234375 C-0.66281265 24.19348526 -0.64203156 23.48462677 -0.62062073 22.75428772 C-0.55505402 20.48212695 -0.4962077 18.20984736 -0.4375 15.9375 C-0.39432151 14.40037817 -0.35070745 12.8632685 -0.30664062 11.32617188 C-0.19936551 7.5509041 -0.09811863 3.7755164 0 0 Z " fill="#EE4E4A" transform="translate(99,174)"/>
<path d="M0 0 C-6.8724399 3.03841034 -13.4721487 4.95477336 -20.875 6.1875 C-21.8453418 6.35403076 -22.81568359 6.52056152 -23.81542969 6.69213867 C-36.82956135 8.87171104 -48.88013216 8.94754601 -62 8 C-62 7.01 -62 6.02 -62 5 C-53.585 4.505 -53.585 4.505 -45 4 C-45 4.66 -45 5.32 -45 6 C-37.04068503 6.60450493 -29.62990028 5.60455932 -21.8125 4.1875 C-20.88679199 4.02217773 -19.96108398 3.85685547 -19.00732422 3.68652344 C-13.74098483 2.68904664 -8.80018728 1.37925677 -3.78393555 -0.51831055 C-2 -1 -2 -1 0 0 Z " fill="#F65782" transform="translate(419,415)"/>
<path d="M0 0 C0.66 0 1.32 0 2 0 C3.16281933 8.70213607 3.11579895 17.36788151 3.0625 26.125 C3.05747252 27.57291511 3.05291183 29.02083192 3.04882812 30.46875 C3.03792705 33.97920259 3.02073202 37.48959007 3 41 C2.67 41 2.34 41 2 41 C1.67 39.02 1.34 37.04 1 35 C0.67 35 0.34 35 0 35 C0 23.45 0 11.9 0 0 Z " fill="#F25B3D" transform="translate(97,252)"/>
<path d="M0 0 C2.90531768 2.73441664 5.34124144 5.41455533 7.625 8.6875 C16.49849 20.60845121 29.73462048 29.75356145 44 34 C40.39321794 35.31079811 38.46840463 34.68377822 35 33.1875 C34.154375 32.83042969 33.30875 32.47335937 32.4375 32.10546875 C30.26300267 31.11927845 28.12542617 30.08731293 26 29 C26 28.34 26 27.68 26 27 C25.278125 26.75894531 24.55625 26.51789063 23.8125 26.26953125 C20.61128033 24.82453626 18.56794357 23.07488504 16 20.6875 C15.13503906 19.88441406 14.27007812 19.08132813 13.37890625 18.25390625 C12.20134766 17.13822266 12.20134766 17.13822266 11 16 C10.43152344 15.47277344 9.86304687 14.94554687 9.27734375 14.40234375 C7.03124847 12.26102259 6.00266968 11.00800903 5 8 C4.34 8 3.68 8 3 8 C0 2.25 0 2.25 0 0 Z " fill="#FDD87E" transform="translate(62,388)"/>
<path d="M0 0 C0.33 0 0.66 0 1 0 C1.02506235 3.92861947 1.04302799 7.85720679 1.05493164 11.78588867 C1.0623244 13.76547892 1.07504274 15.74504701 1.08789062 17.72460938 C1.13059368 34.59231747 1.13059368 34.59231747 0 40 C-0.99 40.495 -0.99 40.495 -2 41 C-2.10185343 31.52763105 -2.04773019 22.08744903 -1.5625 12.625 C-1.52326416 11.82344482 -1.48402832 11.02188965 -1.44360352 10.19604492 C-1.2474058 6.67616 -0.92960122 3.39798311 0 0 Z " fill="#DC3A96" transform="translate(460,295)"/>
<path d="M0 0 C1.32 0.33 2.64 0.66 4 1 C3.67 2.32 3.34 3.64 3 5 C-26.205 4.505 -26.205 4.505 -56 4 C-56 3.67 -56 3.34 -56 3 C-27.785 2.505 -27.785 2.505 1 2 C0.505 1.01 0.505 1.01 0 0 Z " fill="#D669B7" transform="translate(393,119)"/>
<path d="M0 0 C0.33 0 0.66 0 1 0 C1.08732726 3.89569135 1.14050185 7.79112982 1.1875 11.6875 C1.22520508 13.34168945 1.22520508 13.34168945 1.26367188 15.02929688 C1.27333984 16.09599609 1.28300781 17.16269531 1.29296875 18.26171875 C1.3086792 19.24100342 1.32438965 20.22028809 1.34057617 21.22924805 C0.94134731 24.47716803 -0.21742911 26.29089186 -2 29 C-2.70670728 31.69254991 -2.70670728 31.69254991 -3 34 C-3.33 34 -3.66 34 -4 34 C-3.88535985 31.29087219 -3.75862846 28.58320339 -3.625 25.875 C-3.5940625 25.11445313 -3.563125 24.35390625 -3.53125 23.5703125 C-3.29573759 19.01707265 -2.53783502 15.325161 -1 11 C-0.73004677 9.04920594 -0.51871703 7.0891328 -0.375 5.125 C-0.30023438 4.15820312 -0.22546875 3.19140625 -0.1484375 2.1953125 C-0.09945313 1.47085937 -0.05046875 0.74640625 0 0 Z " fill="#E13084" transform="translate(460,324)"/>
<path d="M0 0 C0.33 0 0.66 0 1 0 C1 19.8 1 39.6 1 60 C0.67 60 0.34 60 0 60 C-0.33 52.74 -0.66 45.48 -1 38 C-1.33 38 -1.66 38 -2 38 C-2.042721 36.33388095 -2.04063832 34.66617115 -2 33 C-1.505 32.505 -1.505 32.505 -1 32 C-0.84028023 29.62661361 -0.7407567 27.27881728 -0.68359375 24.90234375 C-0.66281265 24.19348526 -0.64203156 23.48462677 -0.62062073 22.75428772 C-0.55505402 20.48212695 -0.4962077 18.20984736 -0.4375 15.9375 C-0.39432151 14.40037817 -0.35070745 12.8632685 -0.30664062 11.32617188 C-0.19936551 7.5509041 -0.09811863 3.7755164 0 0 Z " fill="#EC3E56" transform="translate(99,174)"/>
<path d="M0 0 C0.33 0 0.66 0 1 0 C1 3.96 1 7.92 1 12 C1.66 12 2.32 12 3 12 C3.33 11.01 3.66 10.02 4 9 C3.71840367 11.93878727 3.42518615 14.87560413 3.125 17.8125 C3.00705078 19.06256836 3.00705078 19.06256836 2.88671875 20.33789062 C2.80292969 21.14033203 2.71914063 21.94277344 2.6328125 22.76953125 C2.55949707 23.50792236 2.48618164 24.24631348 2.41064453 25.00708008 C2 27 2 27 0 30 C-0.77956232 25.9525754 -1.07796501 22.27794351 -0.87890625 18.1640625 C-0.83056641 17.10058594 -0.78222656 16.03710938 -0.73242188 14.94140625 C-0.67634766 13.84699219 -0.62027344 12.75257812 -0.5625 11.625 C-0.51029297 10.50738281 -0.45808594 9.38976562 -0.40429688 8.23828125 C-0.27519184 5.49186508 -0.14025096 2.74586578 0 0 Z " fill="#F54F8D" transform="translate(50,104)"/>
<path d="M0 0 C4.29 0 8.58 0 13 0 C13 1.98 13 3.96 13 6 C10.703463 7.1482685 9.41686833 7.11561175 6.8671875 7.09765625 C6.06152344 7.09443359 5.25585938 7.09121094 4.42578125 7.08789062 C3.58402344 7.07951172 2.74226563 7.07113281 1.875 7.0625 C1.02550781 7.05798828 0.17601562 7.05347656 -0.69921875 7.04882812 C-2.79950909 7.03702874 -4.8997633 7.01909306 -7 7 C-7 6.67 -7 6.34 -7 6 C-1.72 6 3.56 6 9 6 C9 4.68 9 3.36 9 2 C6.03 1.67 3.06 1.34 0 1 C0 0.67 0 0.34 0 0 Z " fill="#CF4076" transform="translate(259,230)"/>
<path d="M0 0 C4.95 0 9.9 0 15 0 C15 0.66 15 1.32 15 2 C12.75256955 2.53181175 10.50192898 3.05007126 8.25 3.5625 C6.37054688 3.99755859 6.37054688 3.99755859 4.453125 4.44140625 C1.40526252 4.93444283 -0.17641828 5.07666879 -3 4 C-2.01 4 -1.02 4 0 4 C0 2.68 0 1.36 0 0 Z " fill="#E143A4" transform="translate(131,36)"/>
<path d="M0 0 C2.67829845 4.01744767 3.29809775 6.41853339 2.3984375 11.19140625 C1.89183594 12.86009766 1.89183594 12.86009766 1.375 14.5625 C1.05273438 15.67753906 0.73046875 16.79257813 0.3984375 17.94140625 C-1.18954196 21.41455686 -2.87398859 22.87618162 -6 25 C-5.731875 24.484375 -5.46375 23.96875 -5.1875 23.4375 C-4.795625 22.633125 -4.40375 21.82875 -4 21 C-3.484375 20.05125 -2.96875 19.1025 -2.4375 18.125 C0.01802117 12.48226195 -0.24359166 6.05619261 0 0 Z " fill="#A64DB3" transform="translate(425,69)"/>
<path d="M0 0 C2.20242012 3.30363018 2.96540072 6.05183234 4 9.875 C5.13027433 14.03405632 6.31038425 18.03242016 8 22 C7.34 22.33 6.68 22.66 6 23 C4.98524649 20.48425692 3.98820668 17.96365897 3 15.4375 C2.71382812 14.73302734 2.42765625 14.02855469 2.1328125 13.30273438 C0.32605939 8.63528884 -0.31554325 5.00267527 0 0 Z " fill="#FDC457" transform="translate(52,359)"/>
<path d="M0 0 C8.25 0 16.5 0 25 0 C25 0.33 25 0.66 25 1 C24.02389771 1.01401855 24.02389771 1.01401855 23.02807617 1.02832031 C20.08044494 1.08199493 17.13440607 1.1656455 14.1875 1.25 C13.16333984 1.26417969 12.13917969 1.27835937 11.08398438 1.29296875 C10.10107422 1.32519531 9.11816406 1.35742188 8.10546875 1.390625 C6.74651489 1.4220459 6.74651489 1.4220459 5.36010742 1.45410156 C2.82525007 1.80139584 2.82525007 1.80139584 1.1809082 4.03808594 C0.7912085 4.68551758 0.40150879 5.33294922 0 6 C0 4.02 0 2.04 0 0 Z " fill="#D2388F" transform="translate(289,116)"/>
<path d="M0 0 C6.08149603 2.16646423 12.09931767 4.37747452 18 7 C14.39321794 8.31079811 12.46840463 7.68377822 9 6.1875 C7.7315625 5.65189453 7.7315625 5.65189453 6.4375 5.10546875 C4.26300267 4.11927845 2.12542617 3.08731293 0 2 C0 1.34 0 0.68 0 0 Z " fill="#FDBC46" transform="translate(88,415)"/>
<path d="M0 0 C1.485 0.99 1.485 0.99 3 2 C3.78727493 7.37971205 1.85359094 12.03502427 0 17 C-0.33 17 -0.66 17 -1 17 C-0.67 11.39 -0.34 5.78 0 0 Z " fill="#E83D96" transform="translate(457,341)"/>
<path d="M0 0 C3.92488093 3.70060202 7.02215543 7.4906925 10 12 C10 12.66 10 13.32 10 14 C9.34 14 8.68 14 8 14 C5 10.53846154 5 10.53846154 5 8 C4.34 8 3.68 8 3 8 C0 2.25 0 2.25 0 0 Z " fill="#FDCE65" transform="translate(62,388)"/>
<path d="M0 0 C0 3 0 3 -1.53125 4.82421875 C-2.1809375 5.43910156 -2.830625 6.05398437 -3.5 6.6875 C-4.1496875 7.31011719 -4.799375 7.93273437 -5.46875 8.57421875 C-5.9740625 9.04472656 -6.479375 9.51523437 -7 10 C-7.66 9.34 -8.32 8.68 -9 8 C-7.87811441 6.85111717 -6.75238316 5.70598863 -5.625 4.5625 C-4.99851563 3.92441406 -4.37203125 3.28632813 -3.7265625 2.62890625 C-2 1 -2 1 0 0 Z " fill="#EB4D76" transform="translate(184,249)"/>
<path d="M0 0 C0 3.77910478 -0.99703962 4.46106101 -3.5 7.1875 C-4.1496875 7.90292969 -4.799375 8.61835938 -5.46875 9.35546875 C-5.9740625 9.89816406 -6.479375 10.44085938 -7 11 C-7.66 10.67 -8.32 10.34 -9 10 C-8.06862408 8.70391053 -7.1296434 7.41328368 -6.1875 6.125 C-5.66542969 5.40570313 -5.14335937 4.68640625 -4.60546875 3.9453125 C-3 2 -3 2 0 0 Z " fill="#EA5275" transform="translate(179,305)"/>
<path d="M0 0 C0.99 0 1.98 0 3 0 C3 1.98 3 3.96 3 6 C2.67 5.34 2.34 4.68 2 4 C0.68 4.99 -0.64 5.98 -2 7 C-2.66 6.67 -3.32 6.34 -4 6 C-2.1875 3 -2.1875 3 0 0 Z " fill="#DF4F9C" transform="translate(383,275)"/>
<path d="M0 0 C1.32 0.33 2.64 0.66 4 1 C3.67 2.32 3.34 3.64 3 5 C1.54207116 5.05399736 0.08357288 5.09279177 -1.375 5.125 C-2.18710937 5.14820312 -2.99921875 5.17140625 -3.8359375 5.1953125 C-6 5 -6 5 -8 3 C-3.545 2.505 -3.545 2.505 1 2 C0.67 1.34 0.34 0.68 0 0 Z " fill="#C451AB" transform="translate(393,119)"/>
<path d="M0 0 C1.9375 0.8125 1.9375 0.8125 4 2 C4.33 2.99 4.66 3.98 5 5 C7.00016466 6.20882096 7.00016466 6.20882096 9 7 C8.67 7.66 8.34 8.32 8 9 C6.84775972 8.07038578 5.70340824 7.1309875 4.5625 6.1875 C3.60537109 5.40439453 3.60537109 5.40439453 2.62890625 4.60546875 C1 3 1 3 0 0 Z " fill="#FDBB47" transform="translate(82,385)"/>
<path d="M0 0 C0.66 0 1.32 0 2 0 C0.7580393 3.43927579 -0.55740284 6.25207819 -3 9 C-3.66 9 -4.32 9 -5 9 C-3.7580393 5.56072421 -2.44259716 2.74792181 0 0 Z " fill="#E04393" transform="translate(356,253)"/>
<path d="M0 0 C2.32378307 3.4856746 2.63078302 5.86476981 3 10 C2.67 10.99 2.34 11.98 2 13 C-0.28571429 4.57142857 -0.28571429 4.57142857 0 0 Z " fill="#FDB73C" transform="translate(52,359)"/>
<path d="M0 0 C3.39417765 3.12621626 5.6062718 5.56541027 7 10 C6.34 9.67 5.68 9.34 5 9 C5 8.34 5 7.68 5 7 C4.01 6.67 3.02 6.34 2 6 C0.8125 2.9375 0.8125 2.9375 0 0 Z " fill="#8F319C" transform="translate(448,54)"/>
</svg>
